<svg xmlns="http://www.w3.org/2000/svg" viewBox="0 0 100 100" width="100" height="100">
  <defs>
    <linearGradient id="g" x1="0%" y1="0%" x2="100%" y2="100%">
      <stop offset="0%" stop-color="#4CAF50"/>
      <stop offset="100%" stop-color="#2E7D32"/>
    </linearGradient>
  </defs>
  <!-- Background circle -->
  <circle cx="50" cy="50" r="48" fill="url(#g)" opacity="0.15"/>
  <!-- Wheat stalk -->
  <line x1="50" y1="85" x2="50" y2="35" stroke="#4CAF50" stroke-width="2.5" stroke-linecap="round"/>
  <!-- Wheat head -->
  <ellipse cx="50" cy="30" rx="14" ry="10" fill="#FFD54F" opacity="0.9"/>
  <!-- Wheat grains -->
  <ellipse cx="42" cy="28" rx="3" ry="5" fill="#FFC107" transform="rotate(-20 42 28)"/>
  <ellipse cx="50" cy="25" rx="3" ry="5" fill="#FFC107"/>
  <ellipse cx="58" cy="28" rx="3" ry="5" fill="#FFC107" transform="rotate(20 58 28)"/>
  <ellipse cx="44" cy="33" rx="3" ry="4" fill="#FFC107" transform="rotate(-15 44 33)"/>
  <ellipse cx="56" cy="33" rx="3" ry="4" fill="#FFC107" transform="rotate(15 56 33)"/>
  <!-- Awn (beard) -->
  <line x1="38" y1="22" x2="32" y2="12" stroke="#FFB300" stroke-width="1.5" stroke-linecap="round"/>
  <line x1="50" y1="18" x2="50" y2="8" stroke="#FFB300" stroke-width="1.5" stroke-linecap="round"/>
  <line x1="62" y1="22" x2="68" y2="12" stroke="#FFB300" stroke-width="1.5" stroke-linecap="round"/>
  <!-- Leaf -->
  <path d="M50 55 Q30 50 25 65 Q30 58 50 60" fill="#66BB6A" opacity="0.7"/>
  <path d="M50 60 Q70 55 75 70 Q70 63 50 65" fill="#66BB6A" opacity="0.7"/>
  <!-- Drug molecule overlay -->
  <circle cx="72" cy="20" r="5" fill="#E91E63" opacity="0.8"/>
  <circle cx="62" cy="12" r="3" fill="#9C27B0" opacity="0.7"/>
  <circle cx="80" cy="14" r="3" fill="#2196F3" opacity="0.7"/>
  <line x1="68" y1="17" x2="72" y2="20" stroke="#E91E63" stroke-width="1.5" opacity="0.6"/>
  <line x1="72" y1="20" x2="78" y2="16" stroke="#E91E63" stroke-width="1.5" opacity="0.6"/>
</svg>
